<svg width="1507" height="313" viewBox="0 0 1507 313" fill="none" xmlns="http://www.w3.org/2000/svg">
<path d="M60.8 240.8V60H0V16.8H169.28V60H108.48V240.8H60.8Z" fill="#4338CA"/>
<path d="M198.965 240.8V79.2H245.685V240.8H198.965ZM222.325 53.6C214.538 53.6 207.818 51.2 202.165 46.4C196.512 41.4933 193.685 34.9867 193.685 26.88C193.685 18.6667 196.512 12.16 202.165 7.36C207.818 2.45333 214.538 0 222.325 0C230.112 0 236.832 2.45333 242.485 7.36C248.138 12.16 250.965 18.6667 250.965 26.88C250.965 34.9867 248.138 41.4933 242.485 46.4C236.832 51.2 230.112 53.6 222.325 53.6Z" fill="#4338CA"/>
<path d="M291.152 240.8V79.2H337.872V97.44C344.059 89.3333 351.366 83.4667 359.793 79.84C368.326 76.2133 377.233 74.4 386.513 74.4C401.553 74.4 413.926 77.3867 423.633 83.36C433.446 89.2267 440.699 96.8533 445.393 106.24C450.193 115.627 452.592 125.493 452.592 135.84V240.8H405.872V150.4C405.872 140.16 402.993 132 397.233 125.92C391.579 119.84 383.366 116.8 372.592 116.8C365.766 116.8 359.739 118.347 354.513 121.44C349.286 124.427 345.179 128.64 342.193 134.08C339.313 139.52 337.872 145.813 337.872 152.96V240.8H291.152Z" fill="#4338CA"/>
<path d="M513.98 312.32C507.153 312.32 500.433 311.627 493.82 310.24C487.207 308.853 480.967 306.56 475.1 303.36L485.18 264C488.593 265.92 492.327 267.413 496.38 268.48C500.54 269.547 504.38 270.08 507.9 270.08C514.3 270.08 519.58 268.693 523.74 265.92C527.9 263.147 530.993 258.613 533.02 252.32L536.38 242.08L473.34 79.2H524.06L562.78 194.72L600.38 79.2H649.82L581.98 259.2C576.647 272.64 570.513 283.2 563.58 290.88C556.647 298.667 549.02 304.16 540.7 307.36C532.38 310.667 523.473 312.32 513.98 312.32Z" fill="#4338CA"/>
<path d="M715.175 240.8V60H654.375V16.8H823.655V60H762.855V240.8H715.175Z" fill="#4338CA"/>
<path d="M888.46 245.6C877.58 245.6 867.873 243.52 859.34 239.36C850.807 235.2 844.087 229.28 839.18 221.6C834.273 213.813 831.82 204.533 831.82 193.76C831.82 184.587 834.113 176.427 838.7 169.28C843.287 162.133 850.22 156.267 859.5 151.68C868.887 146.987 880.727 143.84 895.02 142.24C909.42 140.533 926.38 140.64 945.9 142.56L946.38 172.32C934.753 170.4 924.46 169.493 915.5 169.6C906.647 169.707 899.18 170.613 893.1 172.32C887.127 174.027 882.593 176.533 879.5 179.84C876.407 183.04 874.86 186.933 874.86 191.52C874.86 197.813 877.207 202.667 881.9 206.08C886.593 209.387 892.94 211.04 900.94 211.04C907.873 211.04 914.113 209.813 919.66 207.36C925.207 204.907 929.633 201.333 932.94 196.64C936.247 191.947 937.9 186.24 937.9 179.52V140.8C937.9 134.507 936.567 129.013 933.9 124.32C931.34 119.52 927.287 115.84 921.74 113.28C916.193 110.613 908.94 109.28 899.98 109.28C891.66 109.28 883.34 110.56 875.02 113.12C866.807 115.573 859.287 119.36 852.46 124.48L840.14 91.84C850.487 85.2267 861.473 80.4267 873.1 77.44C884.727 74.3467 896.087 72.8 907.18 72.8C922.327 72.8 935.553 75.2 946.86 80C958.167 84.8 966.913 92.2133 973.1 102.24C979.393 112.16 982.54 124.8 982.54 140.16V240.8H941.9V223.04C936.567 230.293 929.26 235.893 919.98 239.84C910.7 243.68 900.193 245.6 888.46 245.6Z" fill="#4338CA"/>
<path d="M1084.4 245.44C1070 245.44 1056.72 243.573 1044.56 239.84C1032.4 236 1022 230.773 1013.36 224.16L1028.56 191.52C1036.99 197.28 1046.11 201.813 1055.92 205.12C1065.73 208.32 1075.17 209.92 1084.24 209.92C1093.2 209.92 1100.08 208.587 1104.88 205.92C1109.79 203.147 1112.24 199.2 1112.24 194.08C1112.24 189.493 1110.05 186.133 1105.68 184C1101.41 181.76 1093.09 179.36 1080.72 176.8C1059.39 172.96 1043.81 166.933 1034 158.72C1024.19 150.4 1019.28 138.987 1019.28 124.48C1019.28 114.24 1022.11 105.227 1027.76 97.44C1033.52 89.6533 1041.41 83.6267 1051.44 79.36C1061.47 74.9867 1072.99 72.8 1086 72.8C1098.8 72.8 1110.85 74.56 1122.16 78.08C1133.57 81.4933 1143.33 86.2933 1151.44 92.48L1136.72 125.28C1132.45 121.867 1127.55 118.88 1122 116.32C1116.56 113.76 1110.8 111.787 1104.72 110.4C1098.75 108.907 1092.88 108.16 1087.12 108.16C1079.33 108.16 1073.04 109.493 1068.24 112.16C1063.44 114.72 1061.04 118.347 1061.04 123.04C1061.04 127.733 1063.23 131.2 1067.6 133.44C1071.97 135.68 1080.13 138.133 1092.08 140.8C1114.37 145.493 1130.21 151.733 1139.6 159.52C1149.09 167.2 1153.84 178.027 1153.84 192C1153.84 202.773 1150.91 212.16 1145.04 220.16C1139.28 228.16 1131.17 234.4 1120.72 238.88C1110.37 243.253 1098.27 245.44 1084.4 245.44Z" fill="#4338CA"/>
<path d="M1189.9 240.8V10.4H1236.62V136.8L1290.06 79.2H1344.46L1287.82 143.36L1350.7 240.8H1295.18L1253.9 173.92L1236.62 191.84V240.8H1189.9Z" fill="#4338CA"/>
<path d="M1436.59 245.44C1422.19 245.44 1408.91 243.573 1396.75 239.84C1384.59 236 1374.19 230.773 1365.55 224.16L1380.75 191.52C1389.17 197.28 1398.29 201.813 1408.11 205.12C1417.92 208.32 1427.36 209.92 1436.43 209.92C1445.39 209.92 1452.27 208.587 1457.07 205.92C1461.97 203.147 1464.43 199.2 1464.43 194.08C1464.43 189.493 1462.24 186.133 1457.87 184C1453.6 181.76 1445.28 179.36 1432.91 176.8C1411.57 172.96 1396 166.933 1386.19 158.72C1376.37 150.4 1371.47 138.987 1371.47 124.48C1371.47 114.24 1374.29 105.227 1379.95 97.44C1385.71 89.6533 1393.6 83.6267 1403.63 79.36C1413.65 74.9867 1425.17 72.8 1438.19 72.8C1450.99 72.8 1463.04 74.56 1474.35 78.08C1485.76 81.4933 1495.52 86.2933 1503.63 92.48L1488.91 125.28C1484.64 121.867 1479.73 118.88 1474.19 116.32C1468.75 113.76 1462.99 111.787 1456.91 110.4C1450.93 108.907 1445.07 108.16 1439.31 108.16C1431.52 108.16 1425.23 109.493 1420.43 112.16C1415.63 114.72 1413.23 118.347 1413.23 123.04C1413.23 127.733 1415.41 131.2 1419.79 133.44C1424.16 135.68 1432.32 138.133 1444.27 140.8C1466.56 145.493 1482.4 151.733 1491.79 159.52C1501.28 167.2 1506.03 178.027 1506.03 192C1506.03 202.773 1503.09 212.16 1497.23 220.16C1491.47 228.16 1483.36 234.4 1472.91 238.88C1462.56 243.253 1450.45 245.44 1436.59 245.44Z" fill="#4338CA"/>
</svg>
